<?xml version="1.0" encoding="utf-8"?>

<!DOCTYPE svg PUBLIC "-//W3C//DTD SVG 1.1//EN" "http://www.w3.org/Graphics/SVG/1.1/DTD/svg11.dtd">
<svg version="1.1" id="Layer_1" xmlns="http://www.w3.org/2000/svg" xmlns:xlink="http://www.w3.org/1999/xlink" x="0px" y="0px"
	 viewBox="0 0 1015.8184 1927.8806" enable-background="new 0 0 1015.8184 1927.8806" xml:space="preserve">
<g>
	<path d="M493.4169,1202.5516c-0.8819,6.3666-1.3477,11.9585-1.3039,17.6316c0.1503,19.4536-1.9453,38.8129-2.6281,58.2305
		c-0.2612,7.429-1.3848,14.7627-1.4586,22.2358c-0.0905,9.166-1.7173,18.3115-2.565,27.4766
		c-0.8246,8.9146-1.4387,17.8486-2.2674,26.7627c-0.6895,7.4164-1.6286,14.8093-2.3292,22.2249
		c-1.2914,13.6715-2.7738,27.3568-4.55,40.9347c-2.1221,16.2211-3.9206,32.501-6.3333,48.6925
		c-2.3151,15.5365-4.1963,31.1387-6.6033,46.6602c-2.9714,19.162-6.2765,38.2651-10.2305,57.2638
		c-5.9559,28.6173-13.4149,56.8312-21.1962,84.9948c-5.9131,21.4015-13.3255,42.278-20.7128,63.1569
		c-6.3696,18.0026-13.4014,35.7825-22.0547,52.8887c-3.1122,6.1525-6.1276,11.6466-12.4667,15.39
		c-5.7891,3.4185-11.1641,3.7516-17.691,3.3835c-13.6943-0.7717-27.4078-2.2802-41.2169-1.0319
		c-8.8832,0.8029-16.5222,4.4679-24.6785,7.455c-9.3524,3.425-18.2078,7.7911-27.3719,11.5155
		c-1.9845,0.8065-4.0283,1.6461-5.7556,2.8763c-8.7974,6.2664-17.7436,1.9718-26.6125,0.4247
		c-1.0584-0.1846-1.9149-1.7478-2.788-2.7397c-10.6703-12.1207-18.6837-26.033-26.9954-39.7666
		c-9.5383-15.7603-17.2743-32.4532-25.3045-48.9641c-6.3576-13.0719-11.3851-26.7932-16.9445-40.2502
		c-5.695-13.7855-10.3526-27.9366-15.1568-42.0514c-3.3456-9.8293-7.4046-19.5273-9.6134-29.6014
		c-2.6375-12.0293-6.6822-23.6248-9.4441-35.5897c-3.3646-14.5754-7.2502-29.0313-10.5841-43.6134
		c-3.8342-16.7704-7.3591-33.6122-10.9311-50.4415c-3.8315-18.0518-7.5895-36.1191-11.3278-54.1904
		c-3.7039-17.9055-6.3587-36.0021-10.1294-53.9097c-2.6371-12.5238-3.0781-25.4941-5.2514-38.1357
		c-2.7748-16.1401-4.5017-32.3925-6.3349-48.6387c-1.4583-12.9236-2.8184-25.8632-3.9182-38.8214
		c-1.5625-18.4103-2.867-36.8427-4.2409-55.2687c-0.782-10.4884-1.0799-21.0311-2.3304-31.4613
		c-1.3108-10.933-1.268-21.9452-2.2022-32.8951c-1.1011-12.9065-1.3441-26.0056-2.0877-39.0028
		c-0.8481-14.8217-1.0696-29.6815-2.6656-44.4696c-0.8096-7.5018-0.1571-15.0919-0.9239-22.6557
		c-0.7483-7.3809-0.3423-14.8712-0.7084-22.3003c-0.6331-12.8477-1.6223-25.6789-2.1688-38.5295
		c-0.3496-8.2203-0.0932-16.4646-0.2488-24.6955c-0.2683-14.1872-0.8363-28.3712-0.9219-42.5588
		c-0.0791-13.1115,0.553-26.228,0.4304-39.3383c-0.1523-16.278,0.8003-32.5101,1.5298-48.7487
		c0.5466-12.1675,1.8091-24.3015,2.5157-36.4641c0.2742-4.72,0.5976-9.3878,1.2534-14.0886
		c0.8102-5.808,0.2906-6.0126-5.3461-8.7479c-6.2365-3.0262-7.2756-12.9055-1.7212-17.0629
		c2.9235-2.1883,6.0146-4.1527,9.3818-6.4592c-3.4776-1.5338-6.5661-3.0001-9.7336-4.2694
		c-5.2538-2.1053-8.4899-6.1956-8.9722-11.485c-0.5078-5.5698,3.0186-9.7029,7.8734-12.1382
		c2.4401-1.2239,2.7549-1.6414,1.0178-3.9857c-1.7247-2.3273-4.1335-4.217-4.8906-7.3629
		c-2.5462-10.5807,4.3751-18.5804,15.3718-17.1262c3.5327,0.4672,4.6956-0.5023,5.3342-3.8602
		c0.6045-3.179-0.08-3.8594-3.2698-3.8547c-5.7473,0.0084-10.6942-6.0184-10.5916-12.2601
		c0.1041-6.3296,4.6287-11.067,10.7069-11.2105c6.6353-0.1567,6.8596-0.2452,7.4325-8.6141
		c0.9226-13.4767,4.4954-26.5497,5.8777-39.9573c0.4546-4.4089,2.8239-9.0065,2.0001-13.045
		c-0.7208-3.5331,0.744-5.9442,1.3041-8.7394c3.8237-19.0788,8.0665-38.0737,11.8734-57.1557
		c3.4115-17.0996,7.3841-34.0982,11.4584-51.0152c3.7176-15.4357,7.619-30.9101,12.2518-46.1541
		c4.5117-14.8457,8.6807-29.7971,12.8821-44.7352c7.735-27.5022,17.8839-54.1823,28.0209-80.8337
		c8.5373-22.4456,19.1009-44.0542,29.2075-65.8483c8.7967-18.9694,20.0564-36.4442,30.8105-54.2419
		c14.7439-24.4008,30.8699-47.8176,49.9717-69.0878c4.7777-5.3201,14.8432-4.2125,19.2834,1.5038
		c9.9634,12.8268,17.5204,27.0444,26.233,40.586c8.469,13.1627,14.1876,27.7491,22.0662,41.1652
		c9.2264,15.7113,15.6541,32.6655,22.8618,49.2634c1.6716,3.8494,2.9258,8.6658,5.2319,11.4473
		c4.7198,5.6931,3.3001,13.2657,7.9706,19.1002c2.2688,2.8343,2.4037,8.9921,4.2272,13.4319
		c5.9838,14.5691,10.1461,29.7812,15.588,44.506c3.9772,10.7617,5.9686,22.1638,11.3102,32.5742
		c1.8207,3.5485,1.8373,8.7856,3.2124,13.1745c3.4078,10.8769,6.9569,21.7968,9.6718,32.783
		c4.6326,18.7464,10.4724,37.1599,14.7795,55.9788c1.1627,5.0797,2.4993,10.1196,3.9334,15.8918
		c1.8652-4.488,3.6252-8.5279,5.2338-12.6273c7.2658-18.516,18.3483-34.233,33.8511-46.8129
		c10.4505-8.4801,22.3226-13.445,35.6202-15.1634c1.3024-0.1683,3.1086-0.0827,3.786-0.8777
		c6.5804-7.7224,16.2742-7.4975,24.8691-9.4839c15.4134-3.5623,30.9025-6.6975,45.6697-12.5586
		c3.3519-1.3304,6.8531-2.3662,10.0424-4.0098c9.4241-4.8569,11.0865-8.8403,8.8935-19.1791
		c-2.4912-11.7443-4.7604-23.5357-7.2349-35.2837c-0.4301-2.042-1.0735-4.1756-2.1719-5.918
		c-6.5208-10.3446-9.1229-22.3149-13.917-33.3721c-1.0653-2.457-1.9831-2.4361-3.9153-1.8633
		c-3.397,1.0069-5.7119-0.1951-8.0927-2.9359c-6.8767-7.9167-12.6013-16.7316-16.6949-26.1391
		c-3.5018-8.0478-6.137-16.8228-6.2498-25.971c-0.1097-8.8916,4.5244-11.7951,12.4456-7.6558
		c0.5568,0.291,1.3912,0.6602,1.8326,0.4469c1.2643-0.6109,0.4192-1.7302,0.2883-2.6177c-1.28-8.6838-2.9455-17.327-3.8268-26.0498
		c-1.6919-16.7452-2.4001-33.5785,3.6019-49.7049c5.941-15.9626,16.0687-28.784,30.5544-38.0683
		c16.7105-10.7102,34.7658-15.2307,54.6457-13.6415c15.4377,1.2341,29.4489,5.8366,41.8488,14.9897
		c17.1802,12.6817,25.9553,30.4615,30.6417,50.8339c2.1881,9.5119,3.1912,19.1546,4.7045,28.7429
		c0.506,3.206,0.7095,6.4238,0.3607,9.6669c1.9712,0.1233,2.8492-1.05,3.5521-2.0818c1.5156-2.2246,4.5515-4.1813,5.9257-3.0432
		c1.9097,1.5817,4.5249,3.2224,4.8528,6.7526c0.86,9.2581,0.3774,18.3943,0.0094,27.6584
		c-0.4015,10.1027-3.0461,19.4801-5.0765,29.113c-0.189,0.8973,0.3716,2.0731-0.7711,2.6756
		c-7.3733,3.8874-5.6224,11.0536-6.1915,17.3448c-1.2233,13.5246-0.9434,27.1555-6.7909,40.0827
		c-2.527,5.5863-0.6763,12.3488,2.1003,17.9879c5.2302,10.6225,13.2417,18.6554,23.7831,24.2343
		c2.6436,1.399,4.8623,3.5734,7.6943,4.8301c12.8865,5.7184,26.9982,6.5545,40.4338,10.1173
		c17.934,4.7557,36.2795,7.9567,54.4419,11.855c3.7793,0.8112,7.283,2.0417,9.3871,5.7602
		c0.6923,1.2236,1.8436,2.2128,3.4359,2.7012c15.7389,4.8277,27.2811,15.4704,38.0156,27.3381
		c11.7145,12.9511,19.4502,27.9603,24.7163,44.5216c4.4537,14.0063,6.1146,28.3655,7.6991,42.8691
		c0.6542,5.9887,0.3661,12.2069,2.4452,18.0985c0.9646,2.7337-0.5826,5.6406-0.5914,8.5843
		c-0.0527,17.6038,3.5961,34.5659,8.1719,51.3919c3.04,11.1793,5.3643,22.5013,7.403,33.8975
		c2.5507,14.2581,3.5729,28.7247,5.8861,43.0012c2.4192,14.9307,6.6768,29.3344,12.1614,43.5334
		c4.6971,12.1603,8.0553,24.8694,9.8418,38.0146c1.9835,14.5952,3.3011,29.226,4.3406,43.8807
		c1.4226,20.0597,2.7915,40.0971,1.8894,60.295c-0.8953,20.0457-2.5303,40.0421-3.3142,60.0836
		c-0.7882,20.1561-2.7561,40.2674-2.282,60.477c0.0765,3.2625-0.2125,6.6835-1.1337,9.7939
		c-4.6066,15.5565-3.7404,31.4072-2.8171,47.2479c0.3876,6.649-0.7766,13.2639,0.1541,19.923
		c1.4166,10.1361-0.1907,20.3112-0.0311,30.4735c0.1106,7.0546-0.8651,13.8821-5.0667,19.9121
		c-2.0475,2.9387-1.842,6.6091-2.7427,9.9224c-4.4696,16.4423-10.9626,32.002-21.2496,45.7303
		c-2.8422,3.793-6.5085,6.864-10.6986,9.213c-1.7319,0.9709-3.2246,2.1786-4.6456,3.6261
		c-5.4204,5.5222-9.9446,5.0076-14.0479-1.5447c-0.641-1.0233-0.8586-2.3654-2.3306-1.7485
		c-4.9995,2.0945-8.139-0.521-9.9557-4.5139c-1.9059-4.1887,1.347-7.1816,3.8619-10.0122c2.7404-3.0844,5.48-6.2075,9.1521-8.2963
		c1.2318-0.7007,2.2001-1.8755,1.7616-3.2881c-1.6868-5.4346,1.978-8.3669,5.3722-11.1317
		c2.0109-1.6381,3.0446-3.5049,3.0306-5.7936c-0.0363-5.9681,0.8796-11.7593,1.9603-17.6136c0.576-3.12-2.007-6.1095-2.8903-9.2836
		c-1.7146-6.1609-0.4451-12.8053-3.6145-18.731c-1.616-3.0212-3.5186-6.8964-6.3167-6.9977
		c-2.5051-0.0906-4.2415,4.1545-5.5637,6.9518c-3.3339,7.0518-3.9468,14.8844-6.0997,22.2799
		c-1.8656,6.4081-5.5857,11.7839-9.8976,16.7622c-3.3678,3.8883-7.7345,3.4447-11.7115,1.6974
		c-3.887-1.7078-6.895-4.1302-6.7968-9.5793c0.1238-6.8589,0.9131-13.3757,3.7239-19.61
		c4.7781-10.5975,7.3982-21.5437,9.3857-33.1462c2.5787-15.0527,8.178-29.6663,17.4752-42.715
		c4.4052-6.1827,9.2875-11.8605,13.9353-17.7788c5.4589-6.9509,4.8496-15.3102,4.5457-23.1623
		c-0.5021-12.9689-2.2307-25.8906-3.4451-38.8318c-1.2103-12.8978-3.5459-25.6145-6.0093-38.3199
		c-3.6292-18.7175-7.9916-37.279-11.8949-55.9258c-3.8892-18.5795-8.1024-37.1249-10.8031-55.9919
		c-1.658-11.5818-4.9392-22.9653-6.5382-34.65c-0.704-5.144-0.1694-10.2371-0.4939-15.3566
		c-0.7559-11.9235-2.2087-23.6294-5.8564-35.0322c-4.9354-15.4288-9.8325-30.8701-14.7035-46.3195
		c-1.381-4.3799-3.866-8.4189-3.9929-13.203c-0.0225-0.842-0.3859-2.0737-1.826-1.756c-1.1538,0.2545-1.4894,1.0226-1.5383,2.1874
		c-0.7753,18.4183-8.1273,35.305-12.3302,52.9281c-3.8988,16.3489-8.528,32.5093-12.6697,48.7933
		c-2.1766,8.5577-4.3423,17.1375-5.7406,25.7922c-1.5214,9.4164-3.9296,18.9318-3.9269,28.343
		c0.0051,18.2865,0.6063,36.6016,5.8811,54.5278c3.1,10.5358,4.1693,21.6562,4.8826,32.7565
		c0.6129,9.5367,3.2281,18.8716,3.9375,28.4774c1.484,20.0947,4.8916,39.9124,8.7201,59.6967
		c6.0901,31.4724,15.7963,62.1751,19.4711,94.1732c1.5,13.0603,5.0651,25.8813,6.6074,38.9392
		c2.2935,19.4163,3.3661,38.9624,4.2136,58.5079c0.4348,10.0308,1.7983,20.0634,1.5812,30.0699
		c-0.2888,13.3052,0.2448,26.5885,0.6418,39.8481c0.6006,20.0502,0.7343,40.0953,0.8589,60.1442
		c0.0398,6.4172-1.5079,12.8079-5.798,17.5419c-4.1938,4.6281-4.8469,9.3992-3.7021,14.9731
		c3.2294,15.7235,4.4269,31.7062,6.1259,47.6274c1.5134,14.1825,7.3348,27.1841,11.6064,40.5811
		c3.8657,12.1241,7.8276,24.182,10.3243,36.6826c1.9292,9.6586,3.1685,19.3573,3.9318,29.2074
		c1.9198,24.7809-0.757,49.3815-2.1136,74.0236c-0.8164,14.8315-2.2664,29.6635-3.1095,44.4771
		c-0.7949,13.9651-0.8369,28.0585-0.8994,42.1027c-0.0378,8.5057,0.0828,16.9709,1.5245,25.2401
		c1.0648,6.1069,3.7722,11.9918,6.2172,17.7772c2.8986,6.8583,3.8997,14.156,3.1548,21.2098
		c-1.0654,10.0905,2.2167,19.0031,5.8782,27.6877c3.684,8.7378,6.9897,17.683,11.3248,26.1354
		c3.9843,7.7682,7.6931,16.42,14.4938,21.5071c4.2628,3.1886,6.3274,6.8628,8.7772,10.7963
		c1.0437,1.6757,2.5597,3.1321,1.5062,5.8499c-0.6588,1.6996,1.2139,3.9913,2.6719,5.5468
		c5.5548,5.9269,9.0751,12.9913,8.6731,20.9923c-0.3806,7.579,1.7677,14.8687,0.7469,22.6127
		c-1.0067,7.6364-4.4135,13.0675-9.9492,17.281c-16.16,12.3005-34.7159,15.2139-54.3395,12.3207
		c-7.8364-1.1554-13.7328-6.1964-19.1031-11.748c-9.0449-9.3508-12.6934-21.2673-15.4647-33.4517
		c-3.2584-14.3251-8.5651-27.7513-15.4221-40.7218c-5.7153-10.8108-10.1128-22.5734-6.5999-34.7509
		c2.7898-9.6708,1.0135-19.5687,3.6266-29.088c0.7349-2.677-0.5941-5.5837-1.4375-8.2787
		c-3.6899-11.7905-4.0392-23.6624-1.9691-35.8458c1.4225-8.3718-0.5532-16.7533-2.2461-24.9647
		c-2.8715-13.9294-5.9507-27.8208-9.2207-41.6624c-3.5054-14.8381-6.6659-29.8126-11.2856-44.3107
		c-2.4893-7.8118-5.7302-15.5482-8.9939-23.1737c-1.7844-4.1692-3.3904-8.5322-4.5686-12.782
		c-3.4567-12.4681-6.6293-25.1251-8.4208-37.9172c-2.3154-16.533-1.968-33.3033-1.7009-50.0052
		c0.1862-11.6367-3.0618-21.7762-9.3955-32.0009c-8.7302-14.093-17.1146-28.7809-21.7047-44.9558
		c-2.3875-8.4131-2.5906-17.4504-5.0266-25.844c-2.2532-7.7633-3.6368-16.2742-11.0291-21.689
		c-7.0378-5.1554-10.1929-12.7241-12.1327-20.955c-6.5111-27.6276-12.9011-55.2927-21.0139-82.5063
		c-8.3575-28.0348-14.7261-56.5258-19.1554-85.402c-2.2847-14.8948-4.0742-29.8777-6.303-44.7937
		c-0.4265-2.8535-1.7059-4.4828-3.949-4.5918c-2.4257-0.1178-2.2269,2.7559-2.3668,4.2924
		c-1.0358,11.3861-2.5018,22.7081-4.1332,34.0233c-1.7908,12.4216-3.0911,24.9131-4.7492,37.3549
		c-2.075,15.5692-4.4131,31.104-6.4266,46.6808c-2.7275,21.1-4.8481,42.2876-8.0394,63.3146
		c-1.5939,10.502-6.3477,19.95-15.5336,26.3191c-2.7914,1.9354-3.0552,4.6636-3.3596,7.6365
		c-1.1599,11.3262-2.4211,22.6427-3.72,33.9541c-1.6795,14.6262-7.308,28.0922-13.9111,40.9019
		c-4.7985,9.309-3.8433,18.2026-2.6161,27.6378c1.0806,8.3077,2.0253,16.6495,2.5669,25.0062
		c0.5336,8.2334,0.9601,16.5272,0.5638,24.7527c-0.4262,8.8477-0.7164,17.7797-2.6736,26.4835
		c-3.2128,14.287-7.2734,28.3352-11.5314,42.3544c-4.2376,13.9521-6.1438,28.4561-8.392,42.8685
		c-2.4004,15.3892-5.6936,30.6372-8.2555,46.0038c-1.7344,10.4033-3.0157,20.7823-0.2189,31.4067
		c1.6233,6.1666,2.56,12.7307,0.3213,19.2676c-0.9538,2.7848-0.5156,5.8994-0.0057,8.9054
		c1.6057,9.465,3.1942,18.955,1.1397,28.5671c-0.2317,1.0837,0.1041,1.9641,0.506,2.8717
		c4.7185,10.6563,2.3324,20.4967-3.5215,29.8812c-6.3672,10.2074-15.2305,18.5107-21.7961,28.5995
		c-5.7446,8.827-10.6025,18.1479-15.9496,27.1932c-7.3903,12.5013-16.537,23.1395-30.396,28.8702
		c-9.3411,3.8624-18.8951,2.9453-28.3758,1.1793c-12.533-2.3344-23.7953-7.0996-31.699-17.9105
		c-5.6108-7.6752-4.8836-16.1071-2.4855-24.2249c0.8206-2.7778,1.2567-5.4506,1.4492-8.1658
		c0.6955-9.8051,5.359-17.2723,12.324-23.9667c4.4116-4.24,6.4898-10.4761,10.7473-15.031
		c1.3751-1.4714,1.9631-3.2534,4.9493-3.0691c2.6422,0.163,4.5421-2.9413,6.4209-4.9878
		c8.3315-9.075,14.9114-19.3187,20.4786-30.2928c3.0068-5.9268,6.5492-11.5831,9.8784-17.345
		c2.1128-3.6569,3.3337-7.6753,3.328-11.7952c-0.0145-10.288,1.1572-20.3141,4.455-30.1156
		c3.7759-11.2227,1.7539-22.7097,0.783-34.0579c-1.201-14.0363-2.6631-28.0651-4.5655-42.0217
		c-1.7031-12.4944-3.4122-24.9923-5.5933-37.4371c-1.4747-8.4143-1.8289-17.1514-3.0844-25.6663
		c-2.667-18.0869-3.2653-36.2808-3.3132-54.4836c-0.0562-21.3531,3.8835-42.2551,7.9193-63.1584
		c3.1033-16.0731,4.6208-32.3378,2.4449-48.7744c-0.6285-4.7476-0.4596-9.6486-0.1869-14.4525
		c0.226-3.9794-1.3646-6.2839-4.5367-8.5757c-7.3229-5.2906-14.0056-11.4366-16.1813-20.6932
		c-1.1265-4.7925-1.4208-9.8136-1.7496-14.7542c-0.8371-12.578-1.4818-25.1689-2.2043-37.7546
		C495.3809,1206.3364,495.356,1204.5299,493.4169,1202.5516z M494.5451,1021.4322c0.3864-3.7791,0.5724-7.5914,1.1926-11.3317
		c3.4855-21.0205,6.0237-42.1708,8.9197-63.2733c2.2231-16.1997,4.3177-32.4111,7.4615-48.4974
		c3.7099-18.9828,7.5228-37.9744,9.4539-57.2785c1.9786-19.7798,6.9653-39.0857,9.636-58.7914
		c1.2672-9.35,2.8198-18.7301,3.0663-28.0835c0.3654-13.8693,0.9613-27.7812-0.681-41.6889
		c-1.5315-12.9697-1.3706-26.1597-5.5185-38.7447c-0.4227-1.2828-0.0673-2.3098,0.3788-3.3475
		c2.0268-4.7144,0.8201-8.9676-1.4034-13.2911c-1.6259-3.1615-3.2736-6.2528-2.0718-10.3297
		c3.2191-10.9206,1.0073-21.2439-4.8729-30.7686c-2.9648-4.8024-5.3562-9.5335-5.7265-15.415
		c-0.3189-5.0651-2.673-9.7515-5.2831-14.0676c-1.6294,0.429-1.84,1.5226-2.1569,2.3688
		c-3.5604,9.5082-7.8652,18.6789-12.4071,27.7471c-6.6142,13.2056-14.8538,25.4056-23.0955,37.6129
		c-1.9515,2.8906-3.477,6.1-3.0394,9.7585c0.4898,4.0939,1.2452,8.1556,1.7617,12.2469c2.0793,16.4708,4.1028,32.9487,6.1631,49.422
		c1.631,13.0414,3.2666,26.0751,4.3458,39.1855c1.0422,12.66,3.0681,25.2423,4.0017,37.9073
		c1.7684,23.991,3.1629,48.0111,4.5199,72.03c0.8237,14.5806,1.3121,29.1805,1.9033,43.7736
		c0.55,13.5762,0.1731,27.1622,0.7853,40.7532c0.686,15.2296-0.1219,30.5248,0.4924,45.7604
		C492.5883,1010.4772,492.1691,1016.147,494.5451,1021.4322z"/>
</g>
</svg>
